REM DIRINDEX 1\2,1\3,1\4,1\5
REM DIRNAME folder01,folder02,folder03,folder04,folder05
TITLE ""
FILE "P1Q_t_0222-0231.mp3" MP3
  TRACK 01 AUDIO
    TITLE "3:cjc005_1567"
    INDEX 01 00:00:00
  TRACK 02 AUDIO
    TITLE "0:"
    INDEX 01 00:01:03
  TRACK 03 AUDIO
    TITLE "4:cjc005_1568"
    INDEX 01 00:01:28
  TRACK 04 AUDIO
    TITLE "0:"
    INDEX 01 00:02:43
  TRACK 05 AUDIO
    TITLE "5:cjc005_1569"
    INDEX 01 00:02:67
  TRACK 06 AUDIO
    TITLE "0:"
    INDEX 01 00:06:57
  TRACK 07 AUDIO
    TITLE "3:cjc005_1570"
    INDEX 01 00:07:35
  TRACK 08 AUDIO
    TITLE "0:"
    INDEX 01 00:08:42
  TRACK 09 AUDIO
    TITLE "4:cjc005_1571"
    INDEX 01 00:08:66
  TRACK 10 AUDIO
    TITLE "0:"
    INDEX 01 00:10:43
  TRACK 11 AUDIO
    TITLE "5:cjc005_1572"
    INDEX 01 00:10:70
  TRACK 12 AUDIO
    TITLE "0:"
    INDEX 01 00:14:54
  TRACK 13 AUDIO
    TITLE "3:cjc005_1573"
    INDEX 01 00:15:32
  TRACK 14 AUDIO
    TITLE "0:"
    INDEX 01 00:16:57
  TRACK 15 AUDIO
    TITLE "4:cjc005_1574"
    INDEX 01 00:16:71
  TRACK 16 AUDIO
    TITLE "0:"
    INDEX 01 00:18:05
  TRACK 17 AUDIO
    TITLE "5:cjc005_1575"
    INDEX 01 00:18:29
  TRACK 18 AUDIO
    TITLE "0:"
    INDEX 01 00:23:38
  TRACK 19 AUDIO
    TITLE "3:cjc005_1576"
    INDEX 01 00:24:18
  TRACK 20 AUDIO
    TITLE "0:"
    INDEX 01 00:25:41
  TRACK 21 AUDIO
    TITLE "4:cjc005_1577"
    INDEX 01 00:25:68
  TRACK 22 AUDIO
    TITLE "0:"
    INDEX 01 00:27:36
  TRACK 23 AUDIO
    TITLE "5:cjc005_1578"
    INDEX 01 00:27:61
  TRACK 24 AUDIO
    TITLE "0:"
    INDEX 01 00:31:47
  TRACK 25 AUDIO
    TITLE "3:cjc005_1579"
    INDEX 01 00:32:25
  TRACK 26 AUDIO
    TITLE "0:"
    INDEX 01 00:33:40
  TRACK 27 AUDIO
    TITLE "4:cjc005_1580"
    INDEX 01 00:33:62
  TRACK 28 AUDIO
    TITLE "0:"
    INDEX 01 00:35:00
  TRACK 29 AUDIO
    TITLE "5:cjc005_1581"
    INDEX 01 00:35:25
  TRACK 30 AUDIO
    TITLE "0:"
    INDEX 01 00:38:69
  TRACK 31 AUDIO
    TITLE "3:cjc005_1582"
    INDEX 01 00:39:43
  TRACK 32 AUDIO
    TITLE "0:"
    INDEX 01 00:40:68
  TRACK 33 AUDIO
    TITLE "4:cjc005_1583"
    INDEX 01 00:41:16
  TRACK 34 AUDIO
    TITLE "0:"
    INDEX 01 00:42:41
  TRACK 35 AUDIO
    TITLE "5:cjc005_1584"
    INDEX 01 00:42:63
  TRACK 36 AUDIO
    TITLE "0:"
    INDEX 01 00:46:56
  TRACK 37 AUDIO
    TITLE "3:cjc005_1585"
    INDEX 01 00:47:27
  TRACK 38 AUDIO
    TITLE "0:"
    INDEX 01 00:48:34
  TRACK 39 AUDIO
    TITLE "4:cjc005_1586"
    INDEX 01 00:48:61
  TRACK 40 AUDIO
    TITLE "0:"
    INDEX 01 00:49:59
  TRACK 41 AUDIO
    TITLE "5:cjc005_1587"
    INDEX 01 00:50:13
  TRACK 42 AUDIO
    TITLE "0:"
    INDEX 01 00:54:05
  TRACK 43 AUDIO
    TITLE "3:cjc005_1588"
    INDEX 01 00:54:56
  TRACK 44 AUDIO
    TITLE "0:"
    INDEX 01 00:55:73
  TRACK 45 AUDIO
    TITLE "4:cjc005_1589"
    INDEX 01 00:56:18
  TRACK 46 AUDIO
    TITLE "0:"
    INDEX 01 00:57:50
  TRACK 47 AUDIO
    TITLE "5:cjc005_1590"
    INDEX 01 00:57:70
  TRACK 48 AUDIO
    TITLE "0:"
    INDEX 01 01:01:50
  TRACK 49 AUDIO
    TITLE "3:cjc005_1591"
    INDEX 01 01:02:24
  TRACK 50 AUDIO
    TITLE "0:"
    INDEX 01 01:03:45
  TRACK 51 AUDIO
    TITLE "4:cjc005_1592"
    INDEX 01 01:03:65
  TRACK 52 AUDIO
    TITLE "0:"
    INDEX 01 01:05:03
  TRACK 53 AUDIO
    TITLE "5:cjc005_1593"
    INDEX 01 01:05:26
  TRACK 54 AUDIO
    TITLE "0:"
    INDEX 01 01:09:69
  TRACK 55 AUDIO
    TITLE "3:cjc005_1594"
    INDEX 01 01:10:55
  TRACK 56 AUDIO
    TITLE "0:"
    INDEX 01 01:11:60
  TRACK 57 AUDIO
    TITLE "4:cjc005_1595"
    INDEX 01 01:12:09
  TRACK 58 AUDIO
    TITLE "0:"
    INDEX 01 01:13:36
  TRACK 59 AUDIO
    TITLE "5:cjc005_1596"
    INDEX 01 01:13:57
  TRACK 60 AUDIO
    TITLE "0:"
    INDEX 01 01:16:60
